<svg width="24" height="24" viewBox="0 0 24 24" fill="none" xmlns="http://www.w3.org/2000/svg">
<path d="M5 3.61795V20.3798C5 21.658 6.40761 22.4346 7.49163 21.7389L20.6616 13.3579C20.8922 13.212 21.0821 13.0101 21.2138 12.7711C21.3454 12.5321 21.4144 12.2636 21.4144 11.9908C21.4144 11.7179 21.3454 11.4495 21.2138 11.2104C21.0821 10.9714 20.8922 10.7695 20.6616 10.6236L7.49163 2.25888C7.24759 2.10104 6.96548 2.01199 6.67505 2.00113C6.38462 1.99027 6.09664 2.05799 5.8415 2.19716C5.58635 2.33633 5.3735 2.54179 5.2254 2.79185C5.07729 3.04191 4.99942 3.32731 5 3.61795Z" fill="white"/>
</svg>
