<svg width="24" height="24" viewBox="0 0 24 24" fill="none" xmlns="http://www.w3.org/2000/svg">
<path d="M7 5.29436V18.7038C7 19.7264 8.12609 20.3477 8.9933 19.7911L19.5293 13.0863C19.7138 12.9696 19.8657 12.8081 19.971 12.6169C20.0763 12.4257 20.1315 12.2109 20.1315 11.9926C20.1315 11.7743 20.0763 11.5596 19.971 11.3684C19.8657 11.1771 19.7138 11.0156 19.5293 10.8989L8.9933 4.2071C8.79807 4.08083 8.57238 4.00959 8.34004 4.0009C8.1077 3.99221 7.87731 4.04639 7.6732 4.15773C7.46908 4.26907 7.2988 4.43343 7.18032 4.63348C7.06183 4.83353 6.99954 5.06185 7 5.29436Z" fill="white"/>
</svg>
